<?xml version="1.0" ?><svg xmlns="http://www.w3.org/2000/svg" width="24" height="24" viewBox="0 0 24 24" fill="none"><path d="M11 10V8H12C13.3844 8 14.5783 8.27785 15.5866 8.89834C16.5961 9.51955 17.3338 10.4314 17.8944 11.5528L18.3416 12.4472L16.5528 13.3416L16.1056 12.4472C15.6662 11.5686 15.1539 10.9804 14.5384 10.6017C13.9217 10.2222 13.1156 10 12 10H11Z" fill="#32b768"/><path fill-rule="evenodd" clip-rule="evenodd" d="M14.3747 5.28366C14.456 5.03717 14.5 4.77372 14.5 4.5C14.5 3.11929 13.3807 2 12 2C10.6193 2 9.5 3.11929 9.5 4.5C9.5 4.77372 9.54399 5.03717 9.62529 5.28366C5.24879 6.34959 2 10.2954 2 15V19H22V15C22 10.2954 18.7512 6.34959 14.3747 5.28366ZM12 4C11.7239 4 11.5 4.22386 11.5 4.5C11.5 4.77614 11.7239 5 12 5C12.2761 5 12.5 4.77614 12.5 4.5C12.5 4.22386 12.2761 4 12 4ZM12 7C7.58172 7 4 10.5817 4 15V17H20V15C20 10.5817 16.4183 7 12 7Z" fill="#32b768"/><path d="M1 20H23V22H1V20Z" fill="#32b768"/></svg>