<?xml version="1.0" encoding="utf-8"?>
<!-- Generator: Adobe Illustrator 24.0.1, SVG Export Plug-In . SVG Version: 6.00 Build 0)  -->
<svg version="1.1" id="ico" xmlns="http://www.w3.org/2000/svg" xmlns:xlink="http://www.w3.org/1999/xlink" x="0px" y="0px"
	 width="50px" height="50px" viewBox="0 0 50 50" fill="#32b768" xml:space="preserve">
<path d="M43.443,21.147l-3.5-7.286c-0.108-0.226-0.336-0.369-0.586-0.369H10.714c-0.248,0-0.475,0.142-0.584,0.364l-3.571,7.286
	c-0.002,0.005-0.001,0.011-0.004,0.016c-0.038,0.083-0.063,0.173-0.063,0.271v21.578c0,0.359,0.291,0.65,0.65,0.65h35.715
	c0.359,0,0.65-0.291,0.65-0.65V21.429c0-0.097-0.024-0.187-0.062-0.269C43.444,21.156,43.445,21.151,43.443,21.147z M11.119,14.793
	h27.829l3.256,6.776c-0.074,1.546-1.354,2.78-2.919,2.78c-1.61,0-2.921-1.311-2.921-2.921c0-0.359-0.291-0.65-0.65-0.65
	s-0.65,0.291-0.65,0.65c0,1.61-1.311,2.921-2.921,2.921s-2.921-1.311-2.921-2.921c0-0.359-0.291-0.65-0.65-0.65
	s-0.65,0.291-0.65,0.65c0,1.61-1.311,2.921-2.921,2.921s-2.921-1.311-2.921-2.921c0-0.359-0.291-0.65-0.65-0.65
	s-0.65,0.291-0.65,0.65c0,1.61-1.311,2.921-2.921,2.921c-1.611,0-2.922-1.311-2.922-2.921c0-0.359-0.291-0.65-0.65-0.65
	s-0.65,0.291-0.65,0.65c0,1.61-1.311,2.921-2.921,2.921c-1.562,0-2.843-1.233-2.918-2.777L11.119,14.793z M11.364,42.117V29.222
	h5.843v12.896H11.364z M23.522,39.018h3.403v3.339h-3.403V39.018z M38.726,42.356h-3.403v-3.339h3.403V42.356z M40.026,42.356
	v-3.989v-5.178c0-0.359-0.291-0.65-0.65-0.65s-0.65,0.291-0.65,0.65v4.527h-4.054c-0.359,0-0.65,0.291-0.65,0.65v3.989h-2.466v-6.14
	h3.116c0.359,0,0.65-0.291,0.65-0.65s-0.291-0.65-0.65-0.65H27.09c-0.359,0-0.65,0.291-0.65,0.65s0.291,0.65,0.65,0.65h3.165v6.14
	h-2.028v-3.989c0-0.359-0.291-0.65-0.65-0.65h-4.054v-4.527c0-0.359-0.291-0.65-0.65-0.65s-0.65,0.291-0.65,0.65v5.178v3.989h-3.714
	V28.571c0-0.359-0.291-0.65-0.65-0.65h-7.144c-0.359,0-0.65,0.291-0.65,0.65v13.785H7.793V24.464
	c0.76,0.731,1.786,1.187,2.921,1.187c1.502,0,2.823-0.789,3.571-1.974c0.749,1.185,2.07,1.974,3.572,1.974s2.823-0.789,3.571-1.974
	c0.748,1.185,2.069,1.974,3.571,1.974s2.823-0.789,3.571-1.974c0.748,1.185,2.069,1.974,3.571,1.974s2.823-0.789,3.571-1.974
	c0.748,1.185,2.069,1.974,3.571,1.974c1.135,0,2.162-0.455,2.922-1.187v17.893H40.026z"/>
</svg>
