<?xml version="1.0" ?><svg height="32" id="svg5" version="1.1" viewBox="0 0 32 32" width="32" xmlns="http://www.w3.org/2000/svg" xmlns:svg="http://www.w3.org/2000/svg"><defs id="defs2"/><g id="layer1" transform="translate(-396,-100)"><path d="m 415,108 c -5.511,0 -10,4.489 -10,10 0,5.511 4.489,10 10,10 5.511,0 10,-4.489 10,-10 0,-5.511 -4.489,-10 -10,-10 z m 0,2 c 4.43012,0 8,3.56988 8,8 0,4.43012 -3.56988,8 -8,8 -4.43012,0 -8,-3.56988 -8,-8 0,-4.43012 3.56988,-8 8,-8 z" id="path12471" style="color:#32b768;fill:#32b768;fill-opacity:1;fill-rule:evenodd;stroke-linecap:round;stroke-linejoin:round;stroke-miterlimit:4.1;-inkscape-stroke:none"/><path d="m 413,105 a 1,1 0 0 0 -1,1 1,1 0 0 0 1,1 h 4 a 1,1 0 0 0 1,-1 1,1 0 0 0 -1,-1 z" id="path12477" style="color:#32b768;fill:#32b768;fill-opacity:1;fill-rule:evenodd;stroke-linecap:round;stroke-linejoin:round;stroke-miterlimit:4.1;-inkscape-stroke:none"/><path d="m 415,105 a 1,1 0 0 0 -1,1 v 3 a 1,1 0 0 0 1,1 1,1 0 0 0 1,-1 v -3 a 1,1 0 0 0 -1,-1 z" id="path12479" style="color:#32b768;fill:#32b768;fill-opacity:1;fill-rule:evenodd;stroke-linecap:round;stroke-linejoin:round;stroke-miterlimit:4.1;-inkscape-stroke:none"/><path d="m 422.07031,107.09961 a 1,1 0 0 0 -0.70703,0.29297 1,1 0 0 0 0,1.41406 l 2.83008,2.83008 a 1,1 0 0 0 1.41406,0 1,1 0 0 0 0,-1.41406 l -2.83008,-2.83008 a 1,1 0 0 0 -0.70703,-0.29297 z" id="path12485" style="color:#32b768;fill:#32b768;fill-opacity:1;fill-rule:evenodd;stroke-linecap:round;stroke-linejoin:round;stroke-miterlimit:4.1;-inkscape-stroke:none"/><path d="m 423.48437,108.51563 a 1,1 0 0 0 -0.70703,0.29101 l -2.12109,2.12305 a 1,1 0 0 0 0,1.41406 1,1 0 0 0 1.41406,0 l 2.12305,-2.12109 a 1,1 0 0 0 0,-1.41602 1,1 0 0 0 -0.70899,-0.29101 z" id="path12487" style="color:#32b768;fill:#32b768;fill-opacity:1;fill-rule:evenodd;stroke-linecap:round;stroke-linejoin:round;stroke-miterlimit:4.1;-inkscape-stroke:none"/><path d="m 415,112 a 1,1 0 0 0 -1,1 v 4.58594 l -2.70703,2.70703 a 1,1 0 0 0 0,1.41406 1,1 0 0 0 1.41406,0 l 3,-3 A 1.0001,1.0001 0 0 0 416,118 v -5 a 1,1 0 0 0 -1,-1 z" id="path12489" style="color:#32b768;fill:#32b768;fill-opacity:1;fill-rule:evenodd;stroke-linecap:round;stroke-linejoin:round;stroke-miterlimit:4.1;-inkscape-stroke:none"/><path d="m 399,107 a 1,1 0 0 0 -1,1 1,1 0 0 0 1,1 h 8 a 1,1 0 0 0 1,-1 1,1 0 0 0 -1,-1 z" id="path12491" style="color:#32b768;fill:#32b768;fill-opacity:1;fill-rule:evenodd;stroke-linecap:round;stroke-linejoin:round;stroke-miterlimit:4.1;-inkscape-stroke:none"/><path d="m 399,111 a 1,1 0 0 0 -1,1 1,1 0 0 0 1,1 h 5 a 1,1 0 0 0 1,-1 1,1 0 0 0 -1,-1 z" id="path12493" style="color:#32b768;fill:#32b768;fill-opacity:1;fill-rule:evenodd;stroke-linecap:round;stroke-linejoin:round;stroke-miterlimit:4.1;-inkscape-stroke:none"/><path d="m 399,115 a 1,1 0 0 0 -1,1 1,1 0 0 0 1,1 h 3 a 1,1 0 0 0 1,-1 1,1 0 0 0 -1,-1 z" id="path12495" style="color:#32b768;fill:#32b768;fill-opacity:1;fill-rule:evenodd;stroke-linecap:round;stroke-linejoin:round;stroke-miterlimit:4.1;-inkscape-stroke:none"/></g></svg>